<svg xmlns="http://www.w3.org/2000/svg" width="24" height="24" viewBox="0 0 24 24" fill="none">
  <!-- Top-Left (Blue) -->
  <path d="M 0.06 9.74 L 9.74 0.06 L 13.15 3.46 L 3.47 13.14 Z" fill="#367ed7"/>
  <!-- Top-Right (Yellow) -->
  <path d="M 10.91 3.46 L 14.32 0.06 L 23.99 9.74 L 20.59 13.14 Z" fill="#fec309"/>
  <!-- Bottom-Right (Green) -->
  <path d="M 20.6 10 L 24 13.4 L 14.32 23.08 L 10.92 19.68 Z" fill="#00bf63"/>
  <!-- Bottom-Left (Red) -->
  <path d="M 0.06 13.4 L 3.46 10 L 13.14 19.68 L 9.74 23.08 Z" fill="#ff3131"/>
  <!-- Centered "S" from original branding, scaled up for readability -->
  <g transform="translate(8.585, 15.879) scale(0.0848)">
    <path d="M 73.90625 -28.65625 C 73.90625 -19.34375 70.550781 -12.003906 63.84375 -6.640625 C 57.132812 -1.273438 47.804688 1.40625 35.859375 1.40625 C 24.847656 1.40625 15.109375 -0.660156 6.640625 -4.796875 L 6.640625 -25.125 C 13.597656 -22.019531 19.488281 -19.832031 24.3125 -18.5625 C 29.132812 -17.289062 33.546875 -16.65625 37.546875 -16.65625 C 42.347656 -16.65625 46.03125 -17.570312 48.59375 -19.40625 C 51.164062 -21.25 52.453125 -23.976562 52.453125 -27.59375 C 52.453125 -29.625 51.882812 -31.425781 50.75 -33 C 49.625 -34.570312 47.96875 -36.085938 45.78125 -37.546875 C 43.59375 -39.003906 39.132812 -41.335938 32.40625 -44.546875 C 26.09375 -47.503906 21.359375 -50.347656 18.203125 -53.078125 C 15.054688 -55.804688 12.539062 -58.984375 10.65625 -62.609375 C 8.769531 -66.234375 7.828125 -70.46875 7.828125 -75.3125 C 7.828125 -84.445312 10.921875 -91.625 17.109375 -96.84375 C 23.304688 -102.070312 31.863281 -104.6875 42.78125 -104.6875 C 48.144531 -104.6875 53.257812 -104.050781 58.125 -102.78125 C 63 -101.507812 68.09375 -99.71875 73.40625 -97.40625 L 66.359375 -80.40625 C 60.847656 -82.65625 56.289062 -84.226562 52.6875 -85.125 C 49.09375 -86.019531 45.550781 -86.46875 42.0625 -86.46875 C 37.925781 -86.46875 34.75 -85.503906 32.53125 -83.578125 C 30.320312 -81.648438 29.21875 -79.128906 29.21875 -76.015625 C 29.21875 -74.085938 29.664062 -72.40625 30.5625 -70.96875 C 31.457031 -69.539062 32.878906 -68.15625 34.828125 -66.8125 C 36.785156 -65.46875 41.410156 -63.054688 48.703125 -59.578125 C 58.347656 -54.960938 64.957031 -50.335938 68.53125 -45.703125 C 72.113281 -41.066406 73.90625 -35.382812 73.90625 -28.65625 Z M 73.90625 -28.65625" fill="#000000"/>
  </g>
</svg>
