<svg xmlns="http://www.w3.org/2000/svg" xmlns:xlink="http://www.w3.org/1999/xlink" width="40" zoomAndPan="magnify" viewBox="0 0 30 30.000001" height="40" preserveAspectRatio="xMidYMid meet" version="1.0"><defs><g/><clipPath id="1abc247b87"><path d="M 0.484375 0 L 29.515625 0 L 29.515625 29.03125 L 0.484375 29.03125 Z M 0.484375 0 " clip-rule="nonzero"/></clipPath><clipPath id="381dead84a"><path d="M 0.484375 12 L 17 12 L 17 29 L 0.484375 29 Z M 0.484375 12 " clip-rule="nonzero"/></clipPath><clipPath id="1d99356d6b"><path d="M 12.277344 28.179688 L 0.785156 16.6875 L 4.84375 12.628906 L 16.335938 24.121094 Z M 12.277344 28.179688 " clip-rule="nonzero"/></clipPath><clipPath id="ffe6a48b1c"><path d="M 12.277344 28.179688 L 0.789062 16.691406 L 4.832031 12.652344 L 16.320312 24.136719 Z M 12.277344 28.179688 " clip-rule="nonzero"/></clipPath><clipPath id="732cdaded6"><path d="M 0.484375 0 L 17 0 L 17 17 L 0.484375 17 Z M 0.484375 0 " clip-rule="nonzero"/></clipPath><clipPath id="b5c5818659"><path d="M 0.789062 12.339844 L 12.28125 0.847656 L 16.339844 4.902344 L 4.847656 16.394531 Z M 0.789062 12.339844 " clip-rule="nonzero"/></clipPath><clipPath id="0f55bf9da7"><path d="M 0.789062 12.339844 L 12.277344 0.851562 L 16.320312 4.894531 L 4.832031 16.382812 Z M 0.789062 12.339844 " clip-rule="nonzero"/></clipPath><clipPath id="2d7223fd99"><path d="M 13 0 L 29.515625 0 L 29.515625 17 L 13 17 Z M 13 0 " clip-rule="nonzero"/></clipPath><clipPath id="97ac680977"><path d="M 25.167969 16.382812 L 13.675781 4.890625 L 17.730469 0.832031 L 29.222656 12.324219 Z M 25.167969 16.382812 " clip-rule="nonzero"/></clipPath><clipPath id="2664d01bef"><path d="M 25.167969 16.382812 L 13.679688 4.894531 L 17.71875 0.851562 L 29.207031 12.339844 Z M 25.167969 16.382812 " clip-rule="nonzero"/></clipPath><clipPath id="277ab97b63"><path d="M 13 12 L 29.515625 12 L 29.515625 29 L 13 29 Z M 13 12 " clip-rule="nonzero"/></clipPath><clipPath id="905aa3eda1"><path d="M 13.679688 24.136719 L 25.171875 12.644531 L 29.226562 16.703125 L 17.734375 28.195312 Z M 13.679688 24.136719 " clip-rule="nonzero"/></clipPath><clipPath id="4e70d64774"><path d="M 13.679688 24.136719 L 25.167969 12.652344 L 29.207031 16.691406 L 17.71875 28.179688 Z M 13.679688 24.136719 " clip-rule="nonzero"/></clipPath><clipPath id="20d3a67cbf"><rect x="0" width="8" y="0" height="17"/></clipPath><clipPath id="022d6316f5"><rect x="0" width="30" y="0" height="30"/></clipPath></defs><g clip-path="url(#1abc247b87)"><g transform="matrix(1, 0, 0, 1, 0, 0.000000000000005692)"><g clip-path="url(#022d6316f5)"><g clip-path="url(#381dead84a)"><g clip-path="url(#1d99356d6b)"><g clip-path="url(#ffe6a48b1c)"><path stroke-linecap="butt" transform="matrix(-0.096573, -0.096573, 0.096573, -0.096573, 12.278108, 28.178992)" fill="none" stroke-linejoin="miter" d="M 0.000358933 -0.00755649 L 118.959915 -0.00755649 L 118.939691 41.836599 L 0.000358933 41.856823 Z M 0.000358933 -0.00755649 " stroke="#000000" stroke-width="31.886097" stroke-opacity="1" stroke-miterlimit="4"/></g></g></g><g clip-path="url(#732cdaded6)"><g clip-path="url(#b5c5818659)"><g clip-path="url(#0f55bf9da7)"><path stroke-linecap="butt" transform="matrix(0.096573, -0.096573, 0.096573, 0.096573, 0.790449, 12.340139)" fill="none" stroke-linejoin="miter" d="M -0.00565257 -0.00870711 L 118.953904 -0.00870711 L 118.953904 41.855673 L -0.00565257 41.855673 Z M -0.00565257 -0.00870711 " stroke="#000000" stroke-width="31.886097" stroke-opacity="1" stroke-miterlimit="4"/></g></g></g><g clip-path="url(#2d7223fd99)"><g clip-path="url(#97ac680977)"><g clip-path="url(#2664d01bef)"><path stroke-linecap="butt" transform="matrix(-0.096573, -0.096573, 0.096573, -0.096573, 25.166664, 16.381115)" fill="none" stroke-linejoin="miter" d="M -0.0155434 -0.00203381 L 118.944013 -0.00203381 L 118.964237 41.842122 L 0.0046809 41.842122 Z M -0.0155434 -0.00203381 " stroke="#000000" stroke-width="31.886097" stroke-opacity="1" stroke-miterlimit="4"/></g></g></g><g clip-path="url(#277ab97b63)"><g clip-path="url(#905aa3eda1)"><g clip-path="url(#4e70d64774)"><path stroke-linecap="butt" transform="matrix(0.096573, -0.096573, 0.096573, 0.096573, 13.679005, 24.138017)" fill="none" stroke-linejoin="miter" d="M 0.0102558 -0.0031905 L 118.949588 0.0170338 L 118.949588 41.840965 L -0.00996858 41.840965 Z M 0.0102558 -0.0031905 " stroke="#000000" stroke-width="31.886097" stroke-opacity="1" stroke-miterlimit="4"/></g></g></g><g transform="matrix(1, 0, 0, 1, 11, 5)"><g clip-path="url(#20d3a67cbf)"><g fill="#000000" fill-opacity="1"><g transform="translate(0.887128, 12.966624)"><g><path d="M 5.71875 -2.21875 C 5.71875 -1.5 5.457031 -0.929688 4.9375 -0.515625 C 4.414062 -0.0976562 3.695312 0.109375 2.78125 0.109375 C 1.925781 0.109375 1.171875 -0.0507812 0.515625 -0.375 L 0.515625 -1.9375 C 1.054688 -1.695312 1.507812 -1.53125 1.875 -1.4375 C 2.25 -1.34375 2.59375 -1.296875 2.90625 -1.296875 C 3.28125 -1.296875 3.566406 -1.363281 3.765625 -1.5 C 3.960938 -1.644531 4.0625 -1.859375 4.0625 -2.140625 C 4.0625 -2.296875 4.015625 -2.429688 3.921875 -2.546875 C 3.835938 -2.671875 3.707031 -2.789062 3.53125 -2.90625 C 3.363281 -3.019531 3.019531 -3.203125 2.5 -3.453125 C 2.019531 -3.679688 1.65625 -3.898438 1.40625 -4.109375 C 1.164062 -4.316406 0.972656 -4.5625 0.828125 -4.84375 C 0.679688 -5.125 0.609375 -5.453125 0.609375 -5.828125 C 0.609375 -6.535156 0.847656 -7.085938 1.328125 -7.484375 C 1.804688 -7.890625 2.46875 -8.09375 3.3125 -8.09375 C 3.726562 -8.09375 4.125 -8.046875 4.5 -7.953125 C 4.875 -7.859375 5.269531 -7.71875 5.6875 -7.53125 L 5.140625 -6.21875 C 4.710938 -6.394531 4.359375 -6.515625 4.078125 -6.578125 C 3.796875 -6.648438 3.519531 -6.6875 3.25 -6.6875 C 2.9375 -6.6875 2.691406 -6.613281 2.515625 -6.46875 C 2.347656 -6.320312 2.265625 -6.128906 2.265625 -5.890625 C 2.265625 -5.734375 2.296875 -5.597656 2.359375 -5.484375 C 2.429688 -5.378906 2.539062 -5.273438 2.6875 -5.171875 C 2.84375 -5.066406 3.203125 -4.878906 3.765625 -4.609375 C 4.515625 -4.253906 5.023438 -3.894531 5.296875 -3.53125 C 5.578125 -3.175781 5.71875 -2.738281 5.71875 -2.21875 Z M 5.71875 -2.21875 "/></g></g></g></g></g></g></g></g></svg>