<svg xmlns="http://www.w3.org/2000/svg" xmlns:xlink="http://www.w3.org/1999/xlink" width="500" zoomAndPan="magnify" viewBox="0 0 375 374.999991" height="500" preserveAspectRatio="xMidYMid meet" version="1.0"><defs><g/><clipPath id="f16efa23c1"><path d="M 0.839844 153 L 202 153 L 202 354 L 0.839844 354 Z M 0.839844 153 " clip-rule="nonzero"/></clipPath><clipPath id="7e00d10c3a"><path d="M 149.34375 353.980469 L 0.941406 205.578125 L 53.144531 153.375 L 201.546875 301.777344 Z M 149.34375 353.980469 " clip-rule="nonzero"/></clipPath><clipPath id="85585f1773"><path d="M 0.839844 0.199219 L 201.71875 0.199219 L 201.71875 201 L 0.839844 201 Z M 0.839844 0.199219 " clip-rule="nonzero"/></clipPath><clipPath id="f7862b046d"><path d="M 149.34375 200.980469 L 0.941406 52.578125 L 53.144531 0.375 L 201.546875 148.777344 Z M 149.34375 200.980469 " clip-rule="nonzero"/></clipPath><clipPath id="e992c3b299"><rect x="0" width="202" y="0" height="201"/></clipPath><clipPath id="47b5f83796"><path d="M 0.839844 0.800781 L 202 0.800781 L 202 202 L 0.839844 202 Z M 0.839844 0.800781 " clip-rule="nonzero"/></clipPath><clipPath id="c75e767cdd"><path d="M 0.960938 149.394531 L 149.359375 0.992188 L 201.5625 53.195312 L 53.164062 201.597656 Z M 0.960938 149.394531 " clip-rule="nonzero"/></clipPath><clipPath id="50ecaa9f51"><path d="M 0.839844 0.800781 L 201.71875 0.800781 L 201.71875 201.679688 L 0.839844 201.679688 Z M 0.839844 0.800781 " clip-rule="nonzero"/></clipPath><clipPath id="dcb87de194"><path d="M 0.960938 149.394531 L 149.359375 0.992188 L 201.5625 53.195312 L 53.164062 201.597656 Z M 0.960938 149.394531 " clip-rule="nonzero"/></clipPath><clipPath id="ddcece1819"><rect x="0" width="202" y="0" height="202"/></clipPath><clipPath id="7f7ee12ca5"><path d="M 167 0.800781 L 368.28125 0.800781 L 368.28125 202 L 167 202 Z M 167 0.800781 " clip-rule="nonzero"/></clipPath><clipPath id="184d20a68c"><path d="M 315.820312 201.589844 L 167.417969 53.191406 L 219.621094 0.988281 L 368.023438 149.386719 Z M 315.820312 201.589844 " clip-rule="nonzero"/></clipPath><clipPath id="ac24180fa7"><path d="M 0.398438 0.800781 L 201.039062 0.800781 L 201.039062 201.679688 L 0.398438 201.679688 Z M 0.398438 0.800781 " clip-rule="nonzero"/></clipPath><clipPath id="1c2125e5a2"><path d="M 148.820312 201.589844 L 0.417969 53.191406 L 52.621094 0.988281 L 201.023438 149.386719 Z M 148.820312 201.589844 " clip-rule="nonzero"/></clipPath><clipPath id="1b77f67601"><rect x="0" width="202" y="0" height="202"/></clipPath><clipPath id="55c0435d77"><path d="M 167 153 L 368.28125 153 L 368.28125 354 L 167 354 Z M 167 153 " clip-rule="nonzero"/></clipPath><clipPath id="dde4d529a9"><path d="M 167.4375 301.78125 L 315.835938 153.382812 L 368.039062 205.585938 L 219.640625 353.984375 Z M 167.4375 301.78125 " clip-rule="nonzero"/></clipPath><clipPath id="be61fe5a81"><path d="M 0.398438 0.199219 L 201.039062 0.199219 L 201.039062 201 L 0.398438 201 Z M 0.398438 0.199219 " clip-rule="nonzero"/></clipPath><clipPath id="ed3ec9cf81"><path d="M 0.4375 148.78125 L 148.835938 0.382812 L 201.039062 52.585938 L 52.640625 200.984375 Z M 0.4375 148.78125 " clip-rule="nonzero"/></clipPath><clipPath id="27acf0053a"><rect x="0" width="202" y="0" height="201"/></clipPath><clipPath id="ca7ff5a0fc"><rect x="0" width="82" y="0" height="199"/></clipPath><clipPath id="7a26753ff4"><rect x="0" width="369" y="0" height="355"/></clipPath></defs><g transform="matrix(1, 0, 0, 1, 3, 10)"><g clip-path="url(#7a26753ff4)"><g clip-path="url(#f16efa23c1)"><g clip-path="url(#7e00d10c3a)"><g transform="matrix(1, 0, 0, 1, 0, 153)"><g clip-path="url(#e992c3b299)"><g clip-path="url(#85585f1773)"><g clip-path="url(#f7862b046d)"><path fill="#ff3131" d="M 149.34375 200.980469 L 0.890625 52.527344 L 53.09375 0.324219 L 201.546875 148.777344 Z M 149.34375 200.980469 " fill-opacity="1" fill-rule="nonzero"/></g></g></g></g></g></g><g clip-path="url(#47b5f83796)"><g clip-path="url(#c75e767cdd)"><g><g clip-path="url(#ddcece1819)"><g clip-path="url(#50ecaa9f51)"><g clip-path="url(#dcb87de194)"><path fill="#367ed7" d="M 0.960938 149.394531 L 149.414062 0.941406 L 201.617188 53.144531 L 53.164062 201.597656 Z M 0.960938 149.394531 " fill-opacity="1" fill-rule="nonzero"/></g></g></g></g></g></g><g clip-path="url(#7f7ee12ca5)"><g clip-path="url(#184d20a68c)"><g transform="matrix(1, 0, 0, 1, 167, 0)"><g clip-path="url(#1b77f67601)"><g clip-path="url(#ac24180fa7)"><g clip-path="url(#1c2125e5a2)"><path fill="#fec309" d="M 148.820312 201.589844 L 0.367188 53.136719 L 52.570312 0.933594 L 201.023438 149.386719 Z M 148.820312 201.589844 " fill-opacity="1" fill-rule="nonzero"/></g></g></g></g></g></g><g clip-path="url(#55c0435d77)"><g clip-path="url(#dde4d529a9)"><g transform="matrix(1, 0, 0, 1, 167, 153)"><g clip-path="url(#27acf0053a)"><g clip-path="url(#be61fe5a81)"><g clip-path="url(#ed3ec9cf81)"><path fill="#00bf63" d="M 0.4375 148.78125 L 148.890625 0.328125 L 201.09375 52.53125 L 52.640625 200.984375 Z M 0.4375 148.78125 " fill-opacity="1" fill-rule="nonzero"/></g></g></g></g></g></g><g transform="matrix(1, 0, 0, 1, 144, 67)"><g clip-path="url(#ca7ff5a0fc)"><g fill="#000000" fill-opacity="1"><g transform="translate(0.292085, 155.06884)"><g><path d="M 73.90625 -28.65625 C 73.90625 -19.34375 70.550781 -12.003906 63.84375 -6.640625 C 57.132812 -1.273438 47.804688 1.40625 35.859375 1.40625 C 24.847656 1.40625 15.109375 -0.660156 6.640625 -4.796875 L 6.640625 -25.125 C 13.597656 -22.019531 19.488281 -19.832031 24.3125 -18.5625 C 29.132812 -17.289062 33.546875 -16.65625 37.546875 -16.65625 C 42.347656 -16.65625 46.03125 -17.570312 48.59375 -19.40625 C 51.164062 -21.25 52.453125 -23.976562 52.453125 -27.59375 C 52.453125 -29.625 51.882812 -31.425781 50.75 -33 C 49.625 -34.570312 47.96875 -36.085938 45.78125 -37.546875 C 43.59375 -39.003906 39.132812 -41.335938 32.40625 -44.546875 C 26.09375 -47.503906 21.359375 -50.347656 18.203125 -53.078125 C 15.054688 -55.804688 12.539062 -58.984375 10.65625 -62.609375 C 8.769531 -66.234375 7.828125 -70.46875 7.828125 -75.3125 C 7.828125 -84.445312 10.921875 -91.625 17.109375 -96.84375 C 23.304688 -102.070312 31.863281 -104.6875 42.78125 -104.6875 C 48.144531 -104.6875 53.257812 -104.050781 58.125 -102.78125 C 63 -101.507812 68.09375 -99.71875 73.40625 -97.40625 L 66.359375 -80.40625 C 60.847656 -82.65625 56.289062 -84.226562 52.6875 -85.125 C 49.09375 -86.019531 45.550781 -86.46875 42.0625 -86.46875 C 37.925781 -86.46875 34.75 -85.503906 32.53125 -83.578125 C 30.320312 -81.648438 29.21875 -79.128906 29.21875 -76.015625 C 29.21875 -74.085938 29.664062 -72.40625 30.5625 -70.96875 C 31.457031 -69.539062 32.878906 -68.15625 34.828125 -66.8125 C 36.785156 -65.46875 41.410156 -63.054688 48.703125 -59.578125 C 58.347656 -54.960938 64.957031 -50.335938 68.53125 -45.703125 C 72.113281 -41.066406 73.90625 -35.382812 73.90625 -28.65625 Z M 73.90625 -28.65625 "/></g></g></g></g></g></g></g></svg>